<?xml version="1.0" encoding="UTF-8" standalone="no"?>
<!DOCTYPE svg PUBLIC "-//W3C//DTD SVG 1.1//EN" "http://www.w3.org/Graphics/SVG/1.1/DTD/svg11.dtd">
<svg width="2588px" height="580px" version="1.1" xmlns="http://www.w3.org/2000/svg" xmlns:xlink="http://www.w3.org/1999/xlink" xml:space="preserve" xmlns:serif="http://www.serif.com/" style="fill-rule:evenodd;clip-rule:evenodd;stroke-linejoin:round;stroke-miterlimit:2;">
    <g transform="matrix(4.16667,0,0,4.16667,0,0)">
        <g id="Layer2" transform="matrix(0.24,0,0,0.24,0,0)">
            <g transform="matrix(4.16667,0,0,4.16667,0,0)">
                <path d="M203.424,137.033L145.867,79.476C145.58,79.19 145.091,79.393 145.091,79.797L145.091,136.899C145.091,137.402 145.498,137.809 146,137.809L203.103,137.809C203.508,137.809 203.711,137.319 203.424,137.033Z" style="fill:rgb(31,182,255);fill-rule:nonzero;"/>
            </g>
            <g transform="matrix(4.16667,0,0,4.16667,0,0)">
                <path d="M68.203,137.809C30.524,137.809 -0.019,107.254 0,69.571C0.019,31.811 31.096,1.403 68.856,1.403L91.408,1.403C91.91,1.403 92.317,1.81 92.317,2.312L92.317,48.72C92.317,49.222 91.91,49.629 91.408,49.629L68.557,49.629C57.379,49.629 48.039,58.777 48.23,69.953C48.416,80.809 57.304,89.582 68.203,89.582L91.408,89.582C91.91,89.582 92.317,89.99 92.317,90.491L92.317,136.899C92.317,137.402 91.91,137.809 91.408,137.809L68.203,137.809Z" style="fill:rgb(31,182,255);fill-rule:nonzero;"/>
            </g>
            <g transform="matrix(4.16667,0,0,4.16667,0,0)">
                <path d="M145.867,2.179L203.424,59.736C203.711,60.023 204.2,59.82 204.2,59.414L204.2,2.312C204.2,1.81 203.793,1.403 203.291,1.403L146.188,1.403C145.783,1.403 145.581,1.892 145.867,2.179Z" style="fill:rgb(31,182,255);fill-rule:nonzero;"/>
            </g>
        </g>
        <g id="Layer1" transform="matrix(0.24,0,0,0.24,0,0)">
            <g transform="matrix(4.16667,0,0,4.16667,0,0)">
                <path d="M254.933,31.345L254.933,31.174C254.933,13.822 268.288,0.211 286.321,0.211C298.485,0.211 306.312,5.315 311.586,12.63L299.166,22.243C295.764,17.99 291.851,15.268 286.15,15.268C277.814,15.268 271.945,22.327 271.945,31.004L271.945,31.174C271.945,40.107 277.814,47.082 286.15,47.082C292.361,47.082 296.02,44.19 299.592,39.851L312.011,48.698C306.396,56.439 298.826,62.138 285.641,62.138C268.628,62.138 254.933,49.123 254.933,31.345Z" style="fill:white;fill-rule:nonzero;"/>
            </g>
            <g transform="matrix(4.16667,0,0,4.16667,0,0)">
                <path d="M324.174,1.403L340.677,1.403L340.677,46.486L369.513,46.486L369.513,60.948L324.174,60.948L324.174,1.403Z" style="fill:white;fill-rule:nonzero;"/>
            </g>
            <g transform="matrix(4.16667,0,0,4.16667,0,0)">
                <path d="M423.525,31.345L423.525,31.174C423.525,22.583 417.315,15.098 408.214,15.098C399.196,15.098 393.157,22.413 393.157,31.004L393.157,31.174C393.157,39.766 399.367,47.252 408.384,47.252C417.486,47.252 423.525,39.937 423.525,31.345ZM376.229,31.345L376.229,31.174C376.229,14.076 390.01,0.211 408.384,0.211C426.758,0.211 440.368,13.907 440.368,31.004L440.368,31.174C440.368,48.273 426.588,62.138 408.214,62.138C389.84,62.138 376.229,48.443 376.229,31.345Z" style="fill:white;fill-rule:nonzero;"/>
            </g>
            <g transform="matrix(4.16667,0,0,4.16667,0,0)">
                <path d="M453.297,34.832L453.297,1.403L470.055,1.403L470.055,34.492C470.055,43.083 474.394,47.166 481.028,47.166C487.663,47.166 492.001,43.254 492.001,34.917L492.001,1.403L508.76,1.403L508.76,34.407C508.76,53.631 497.786,62.053 480.858,62.053C463.931,62.053 453.297,53.461 453.297,34.832Z" style="fill:white;fill-rule:nonzero;"/>
            </g>
            <g transform="matrix(4.16667,0,0,4.16667,0,0)">
                <path d="M546.868,46.316C556.735,46.316 563.284,40.871 563.284,31.259L563.284,31.089C563.284,21.562 556.735,16.033 546.868,16.033L540.147,16.033L540.147,46.316L546.868,46.316ZM523.645,1.403L546.612,1.403C567.878,1.403 580.213,13.652 580.213,30.834L580.213,31.004C580.213,48.188 567.709,60.948 546.271,60.948L523.645,60.948L523.645,1.403Z" style="fill:white;fill-rule:nonzero;"/>
            </g>
            <g transform="matrix(4.16667,0,0,4.16667,0,0)">
                <path d="M256.975,78.265L272.371,78.265L296.869,109.738L296.869,78.265L313.201,78.265L313.201,137.809L298.74,137.809L273.307,105.144L273.307,137.809L256.975,137.809L256.975,78.265Z" style="fill:white;fill-rule:nonzero;"/>
            </g>
            <g transform="matrix(4.16667,0,0,4.16667,0,0)">
                <path d="M363.898,114.331L357.264,97.404L350.543,114.331L363.898,114.331ZM349.438,77.839L365.345,77.839L390.693,137.809L373,137.809L368.662,127.176L345.694,127.176L341.441,137.809L324.088,137.809L349.438,77.839Z" style="fill:white;fill-rule:nonzero;"/>
            </g>
            <g transform="matrix(4.16667,0,0,4.16667,0,0)">
                <path d="M408.464,92.725L390.602,92.725L390.602,78.265L442.83,78.265L442.83,92.725L424.968,92.725L424.968,137.809L408.464,137.809L408.464,92.725Z" style="fill:white;fill-rule:nonzero;"/>
            </g>
            <g transform="matrix(4.16667,0,0,4.16667,0,0)">
                <rect x="455.503" y="78.265" width="16.588" height="59.544" style="fill:white;fill-rule:nonzero;"/>
            </g>
            <g transform="matrix(4.16667,0,0,4.16667,0,0)">
                <path d="M533.338,108.207L533.338,108.036C533.338,99.446 527.128,91.959 518.025,91.959C509.009,91.959 502.97,99.276 502.97,107.866L502.97,108.036C502.97,116.628 509.18,124.114 518.195,124.114C527.298,124.114 533.338,116.798 533.338,108.207ZM486.041,108.207L486.041,108.036C486.041,90.939 499.821,77.074 518.195,77.074C536.569,77.074 550.18,90.769 550.18,107.866L550.18,108.036C550.18,125.135 536.399,139 518.025,139C499.652,139 486.041,125.305 486.041,108.207Z" style="fill:white;fill-rule:nonzero;"/>
            </g>
            <g transform="matrix(4.16667,0,0,4.16667,0,0)">
                <path d="M563.874,78.265L579.271,78.265L603.77,109.738L603.77,78.265L620.102,78.265L620.102,137.809L605.641,137.809L580.207,105.144L580.207,137.809L563.874,137.809L563.874,78.265Z" style="fill:white;fill-rule:nonzero;"/>
            </g>
        </g>
    </g>
</svg>
